PathFileType	3	(X/Y/Z)	feet_movements_1__view2_aligned.trc
DataRate	CameraRate	NumFrames	NumMarkers	Units	OrigDataRate	OrigDataStartFrame	OrigNumFrames
100.0	100.0	16	19	mm	100.0	1102	1840
Frame#	Time	pelvis			neck			head			hip_left			hip_right			knee_left			knee_right			ankle_left			ankle_right			heel_left			heel_right			toe_left			toe_right			shoulder_left			shoulder_right			elbow_left			elbow_right			wrist_left			wrist_right			
		X1	Y1	Z1	X2	Y2	Z2	X3	Y3	Z3	X4	Y4	Z4	X5	Y5	Z5	X6	Y6	Z6	X7	Y7	Z7	X8	Y8	Z8	X9	Y9	Z9	X10	Y10	Z10	X11	Y11	Z11	X12	Y12	Z12	X13	Y13	Z13	X14	Y14	Z14	X15	Y15	Z15	X16	Y16	Z16	X17	Y17	Z17	X18	Y18	Z18	X19	Y19	Z19	
1102	11.01000	231.859616	937.249434	378.891996	239.835196	1451.246155	572.270443	256.913238	1572.335832	481.576349	166.241772	951.057980	351.566986	297.477461	923.440888	406.217005	229.067128	730.925805	-15.968200	338.330792	506.974222	295.060422	247.129989	392.421423	-244.490370	228.893954	142.998489	446.270860	241.599269	336.385164	-241.335988	204.102970	106.665209	486.416497	308.707112	414.994948	-425.543158	277.886392	51.746077	295.265146	79.808051	1415.190091	551.034799	390.327300	1408.903156	634.767581	-88.659720	1231.929924	448.947681	562.326908	1217.470192	599.564174	-237.077154	1140.212185	300.526645	600.487657	1147.740297	389.996469
1103	11.02000	232.903055	937.620312	380.297445	240.858266	1451.813755	572.816340	257.905271	1572.859291	481.854274	167.356255	951.489441	352.873629	298.449901	923.751181	407.721269	232.521833	734.962812	-16.050719	339.167415	507.104888	296.639244	250.969829	395.340429	-242.753391	229.983622	142.713688	447.103158	245.480787	339.153652	-239.983867	205.180820	106.246711	487.132839	313.023705	420.532581	-422.880219	279.483840	51.889890	295.972515	80.799369	1415.532669	551.388809	391.174124	1409.857434	635.837904	-87.242701	1232.039993	449.410245	563.897998	1218.965562	602.475657	-235.124664	1140.217984	300.765231	600.478512	1151.120725	392.392833
1104	11.03000	233.946493	937.991191	381.702895	241.881336	1452.381355	573.362236	258.897303	1573.382751	482.132199	168.470738	951.920901	354.180273	299.422341	924.061474	409.225533	235.976539	738.999818	-16.133237	340.004038	507.235554	298.218067	254.809668	398.259436	-241.016412	231.073290	142.428888	447.935456	249.362304	341.922140	-238.631746	206.258670	105.828214	487.849180	317.340298	426.070214	-420.217281	281.081289	52.033703	296.679884	81.790686	1415.875246	551.742820	392.020947	1410.811711	636.908226	-85.825682	1232.150062	449.872808	565.469087	1220.460932	605.387139	-233.172173	1140.223782	301.003818	600.469367	1154.501153	394.789197
1105	11.04000	234.989931	938.362070	383.108345	242.904407	1452.948955	573.908133	259.889336	1573.906210	482.410124	169.585221	952.352362	355.486916	300.394781	924.371766	410.729797	239.431245	743.036825	-16.215756	340.840662	507.366220	299.796889	258.649507	401.178442	-239.279432	232.162958	142.144088	448.767754	253.243822	344.690629	-237.279625	207.336520	105.409716	488.565521	321.656891	431.607848	-417.554342	282.678737	52.177517	297.387252	82.782004	1416.217824	552.096830	392.867771	1411.765989	637.978549	-84.408662	1232.260131	450.335371	567.040176	1221.956301	608.298621	-231.219682	1140.229581	301.242404	600.460222	1157.881581	397.185561
1106	11.05000	236.033369	938.732948	384.513794	243.927477	1453.516555	574.454029	260.881369	1574.429670	482.688049	170.699705	952.783823	356.793560	301.367220	924.682059	412.234061	242.885951	747.073831	-16.298274	341.677285	507.496886	301.375712	262.489347	404.097448	-237.542453	233.252626	141.859288	449.600052	257.125340	347.459117	-235.927504	208.414370	104.991219	489.281862	325.973485	437.145481	-414.891404	284.276186	52.321330	298.094621	83.773322	1416.560402	552.450840	393.714595	1412.720266	639.048871	-82.991643	1232.370200	450.797935	568.611266	1223.451671	611.210103	-229.267192	1140.235380	301.480990	600.451076	1161.262010	399.581925
1107	11.06000	237.076808	939.103827	385.919244	244.950547	1454.084156	574.999926	261.873401	1574.953129	482.965974	171.814188	953.215284	358.100203	302.339660	924.992352	413.738324	246.340656	751.110838	-16.380793	342.513909	507.627552	302.954534	266.329186	407.016455	-235.805473	234.342294	141.574488	450.432350	261.006857	350.227605	-234.575384	209.492220	104.572721	489.998203	330.290078	442.683114	-412.228465	285.873634	52.465143	298.801989	84.764640	1416.902979	552.804851	394.561419	1413.674544	640.119194	-81.574624	1232.480268	451.260498	570.182355	1224.947041	614.121586	-227.314701	1140.241179	301.719577	600.441931	1164.642438	401.978288
1108	11.07000	238.120246	939.474705	387.324693	245.973617	1454.651756	575.545823	262.865434	1575.476589	483.243899	172.928671	953.646745	359.406846	303.312100	925.302645	415.242588	249.795362	755.147844	-16.463311	343.350532	507.758217	304.533357	270.169025	409.935461	-234.068494	235.431962	141.289688	451.264648	264.888375	352.996093	-233.223263	210.570070	104.154223	490.714544	334.606671	448.220747	-409.565527	287.471083	52.608956	299.509358	85.755958	1417.245557	553.158861	395.408243	1414.628821	641.189516	-80.157605	1232.590337	451.723061	571.753445	1226.442411	617.033068	-225.362211	1140.246978	301.958163	600.432786	1168.022866	404.374652
1109	11.08000	239.163684	939.845584	388.730143	246.996687	1455.219356	576.091719	263.857466	1576.000048	483.521824	174.043155	954.078206	360.713490	304.284540	925.612938	416.746852	253.250068	759.184851	-16.545830	344.187156	507.888883	306.112179	274.008865	412.854467	-232.331515	236.521630	141.004888	452.096946	268.769893	355.764582	-231.871142	211.647920	103.735726	491.430885	338.923265	453.758381	-406.902588	289.068531	52.752769	300.216727	86.747276	1417.588135	553.512872	396.255066	1415.583099	642.259839	-78.740585	1232.700406	452.185625	573.324534	1227.937781	619.944550	-223.409720	1140.252776	302.196749	600.423641	1171.403294	406.771016
1110	11.09000	240.207122	940.216463	390.135593	248.019757	1455.786956	576.637616	264.849499	1576.523508	483.799748	175.157638	954.509666	362.020133	305.256980	925.923231	418.251116	256.704773	763.221857	-16.628348	345.023779	508.019549	307.691002	277.848704	415.773474	-230.594535	237.611298	140.720088	452.929244	272.651410	358.533070	-230.519021	212.725770	103.317228	492.147226	343.239858	459.296014	-404.239650	290.665980	52.896582	300.924095	87.738594	1417.930712	553.866882	397.101890	1416.537376	643.330161	-77.323566	1232.810475	452.648188	574.895623	1229.433151	622.856032	-221.457230	1140.258575	302.435336	600.414496	1174.783722	409.167380
1111	11.10000	241.250561	940.587341	391.541042	249.042827	1456.354556	577.183512	265.841532	1577.046967	484.077673	176.272121	954.941127	363.326777	306.229420	926.233524	419.755380	260.159479	767.258864	-16.710867	345.860402	508.150215	309.269824	281.688543	418.692480	-228.857556	238.700966	140.435287	453.761542	276.532928	361.301558	-229.166900	213.803620	102.898731	492.863567	347.556451	464.833647	-401.576711	292.263428	53.040395	301.631464	88.729912	1418.273290	554.220892	397.948714	1417.491654	644.400484	-75.906547	1232.920543	453.110752	576.466713	1230.928521	625.767515	-219.504739	1140.264374	302.673922	600.405350	1178.164150	411.563744
1112	11.11000	242.293999	940.958220	392.946492	250.065897	1456.922156	577.729409	266.833564	1577.570427	484.355598	177.386605	955.372588	364.633420	307.201860	926.543817	421.259644	263.614185	771.295870	-16.793385	346.697026	508.280881	310.848647	285.528383	421.611487	-227.120576	239.790634	140.150487	454.593840	280.414446	364.070047	-227.814779	214.881470	102.480233	493.579909	351.873044	470.371280	-398.913773	293.860877	53.184209	302.338833	89.721230	1418.615868	554.574903	398.795538	1418.445931	645.470806	-74.489528	1233.030612	453.573315	578.037802	1232.423890	628.678997	-217.552248	1140.270173	302.912509	600.396205	1181.544578	413.960108
1113	11.12000	242.506234	941.369148	394.507931	250.365539	1457.488649	578.093759	267.265619	1578.002206	484.312871	177.642152	955.822864	366.099775	307.370688	926.915398	422.916150	266.025154	776.658724	-16.625932	346.705534	508.589981	312.613220	288.139077	425.710601	-224.471925	240.201388	140.012555	455.358911	283.126919	368.048218	-225.404026	215.318583	102.171454	494.209886	354.399751	476.537989	-395.420884	294.732835	53.595558	302.924820	90.003266	1418.884377	554.864808	398.829051	1419.533916	646.359587	-73.068085	1232.557878	454.665396	578.411126	1233.893855	631.475272	-214.083641	1140.111519	302.884112	598.525522	1185.094240	416.257665
1114	11.13000	242.718468	941.780076	396.069369	250.665180	1458.055141	578.458109	267.697673	1578.433985	484.270144	177.897699	956.273140	367.566131	307.539516	927.286980	424.572655	268.436124	782.021577	-16.458478	346.714042	508.899081	314.377793	290.749771	429.809716	-221.823273	240.612142	139.874622	456.123981	285.839392	372.026389	-222.993272	215.755696	101.862676	494.839864	356.926457	482.704698	-391.927995	295.604792	54.006907	303.510807	90.285302	1419.152886	555.154714	398.862564	1420.621900	647.248368	-71.646641	1232.085144	455.757476	578.784449	1235.363819	634.271547	-210.615034	1139.952865	302.855715	596.654838	1188.643901	418.555222
1115	11.14000	242.930703	942.191004	397.630808	250.964822	1458.621634	578.822459	268.129727	1578.865764	484.227418	178.153247	956.723416	369.032486	307.708344	927.658561	426.229161	270.847094	787.384430	-16.291024	346.722550	509.208181	316.142367	293.360465	433.908830	-219.174621	241.022896	139.736690	456.889052	288.551865	376.004560	-220.582519	216.192809	101.553897	495.469842	359.453164	488.871407	-388.435106	296.476750	54.418256	304.096794	90.567338	1419.421394	555.444619	398.896078	1421.709884	648.137149	-70.225198	1231.612410	456.849557	579.157772	1236.833783	637.067822	-207.146426	1139.794211	302.827319	594.784154	1192.193563	420.852779
1116	11.15000	243.142937	942.601933	399.192246	251.264464	1459.188126	579.186809	268.561781	1579.297543	484.184691	178.408794	957.173692	370.498842	307.877172	928.030143	427.885667	273.258063	792.747284	-16.123571	346.731058	509.517281	317.906940	295.971159	438.007945	-216.525969	241.433649	139.598758	457.654122	291.264339	379.982731	-218.171766	216.629922	101.245118	496.099820	361.979870	495.038115	-384.942217	297.348708	54.829605	304.682781	90.849374	1419.689903	555.734524	398.929591	1422.797869	649.025930	-68.803755	1231.139676	457.941638	579.531096	1238.303747	639.864097	-203.677819	1139.635556	302.798922	592.913471	1195.743224	423.150336
1117	11.16000	243.355172	943.012861	400.753684	251.564105	1459.754618	579.551159	268.993836	1579.729323	484.141964	178.664342	957.623968	371.965197	308.046000	928.401725	429.542173	275.669033	798.110137	-15.956117	346.739566	509.826381	319.671513	298.581853	442.107059	-213.877317	241.844403	139.460825	458.419193	293.976812	383.960903	-215.761012	217.067035	100.936339	496.729798	364.506577	501.204824	-381.449328	298.220665	55.240954	305.268768	91.131410	1419.958412	556.024429	398.963104	1423.885853	649.914712	-67.382312	1230.666942	459.033719	579.904419	1239.773711	642.660373	-200.209212	1139.476902	302.770525	591.042787	1199.292886	425.447893
